<?xml version="1.0" encoding="UTF-8" standalone="no"?><svg xmlns="http://www.w3.org/2000/svg" height="48" viewBox="0 0 48 48"><path d="M6.45.99h35.1q2.29 0 4.02 1.8Q47 4.45 47 6.45v35.1q0 1.99-1.4 3.62Q43.83 47 41.54 47H6.48q-2.45 0-4.24-1.99Q.99 43.38.99 41.55V6.45q0-2.29 1.8-4.02Q4.46.99 6.45.99z" fill="#2b2636"/><path d="M20.62 33.87c-.83 0-.7-.31-.98-1.1l-2.45-8.08 18.88-11.2" stroke="#ffa200" stroke-width=".9" fill="none"/><path d="M20.53 34.32c.64 0 .93-.3 1.29-.64l3.43-3.34-4.28-2.58" fill="#ffa200"/><path d="M20.97 27.76l10.38 7.66c1.18.66 2.03.32 2.33-1.1l4.22-19.9c.44-1.73-.66-2.52-1.79-2l-24.8 9.56c-1.7.68-1.69 1.62-.31 2.04l6.36 1.99 14.74-9.3c.7-.42 1.33-.2.8.27" fill="#ffa200"/></svg>